<?xml version="1.0" encoding="UTF-8" standalone="no"?>
<!-- Created with Inkscape (http://www.inkscape.org/) -->

<svg
   viewBox="0 0 152.39738 132.08115"
   version="1.1"
   id="svg1"
   sodipodi:docname="simple-school-logo.svg"
   inkscape:version="1.4 (e7c3feb1, 2024-10-09)"
   inkscape:export-filename="simple-school-logo.png"
   inkscape:export-xdpi="96"
   inkscape:export-ydpi="96"
   xmlns:inkscape="http://www.inkscape.org/namespaces/inkscape"
   xmlns:sodipodi="http://sodipodi.sourceforge.net/DTD/sodipodi-0.dtd"
   xmlns="http://www.w3.org/2000/svg"
   xmlns:svg="http://www.w3.org/2000/svg">
  <sodipodi:namedview
     id="namedview1"
     pagecolor="#ffffff"
     bordercolor="#000000"
     borderopacity="0.25"
     inkscape:showpageshadow="2"
     inkscape:pageopacity="0.0"
     inkscape:pagecheckerboard="0"
     inkscape:deskcolor="#d1d1d1"
     inkscape:document-units="mm"
     inkscape:zoom="0.57404161"
     inkscape:cx="248.23984"
     inkscape:cy="227.33544"
     inkscape:window-width="1344"
     inkscape:window-height="806"
     inkscape:window-x="0"
     inkscape:window-y="37"
     inkscape:window-maximized="0"
     inkscape:current-layer="svg1">
    <inkscape:page
       x="0"
       y="0"
       width="152.39738"
       height="132.08115"
       id="page2"
       margin="0"
       bleed="0" />
  </sodipodi:namedview>
  <defs
     id="defs1" />
  <g
     id="layer1"
     transform="translate(-28.859685,-60.513321)">
    <path
       style="fill:none;stroke:#000000;stroke-width:3;stroke-dasharray:none;stroke-opacity:1"
       id="path1"
       d="m 178.65702,190.89567 c -49.06708,0.0651 -98.134169,0.13023 -147.201253,0.19534 24.477151,-42.5259 48.954302,-85.05179 73.431453,-127.577691 24.58993,42.460781 49.17987,84.921571 73.7698,127.382351 z" />
    <path
       style="color:#000000;display:inline;overflow:visible;visibility:visible;fill:#1a1a1a;fill-opacity:1;stroke:none;stroke-width:0.0640951px;marker:none;enable-background:accumulate"
       d="m 129.3128,112.51047 c -7.56356,5.30602 -5.82838,15.66295 -5.87905,23.6632 1.58305,8.06016 -4.4237,12.77466 -11.4862,14.35589 -2.95183,3.79897 -7.20864,-0.3159 -5.96226,-4.11266 -0.004,-6.37165 -0.008,-12.74331 -0.0118,-19.11496 -3.09676,-1.75468 -1.46082,3.53499 -1.851,5.26259 6.1e-4,19.08746 0.001,38.17491 0.002,57.26236 7.90029,0.003 15.80059,0.005 23.70088,0.008 0.12857,-5.85782 -9.71452,-0.43203 -13.37785,-2.83889 -6.65316,-3.72938 -4.52077,-12.84303 -5.02249,-19.23866 -0.72996,-7.18886 -0.012,-16.44704 9.07151,-17.17515 8.26932,-2.37216 7.30379,-12.57186 7.1702,-19.34912 -0.466,-6.50587 -0.22485,-15.39611 7.19462,-17.90918 5.67897,-1.32321 -1.51428,-0.64838 -3.54858,-0.8117 z m -54.718218,0.008 c 7.915921,0.89992 10.788234,9.38994 9.917877,16.28715 0.207449,6.96783 -1.970213,16.72553 5.172267,20.95351 7.985068,1.1532 12.714554,7.41645 11.005884,15.49312 -0.43863,6.73357 1.28508,14.45919 -2.828479,20.34231 -3.669672,4.86758 -13.736311,-1.45453 -15.539541,3.45613 0.814248,1.7294 4.773492,0.31442 6.856747,0.77506 4.471248,8.9e-4 8.942495,0.002 13.413743,0.003 0.003,-20.85132 -0.008,-41.71598 0.003,-62.55896 2.13297,-5.22068 6.36224,0.1398 4.91239,3.6481 0.004,6.10832 0.008,12.21663 0.0113,18.32495 2.93908,3.543 2.38419,-2.12324 2.32529,-4.17256 -0.21054,-6.5234 0.44424,-13.14875 -0.37148,-19.60141 -2.25297,-6.22124 -10.739145,-2.0477 -9.24634,3.51441 -0.0552,7.63823 0.11028,15.4972 -0.0824,22.99799 -5.589677,-3.66831 -14.995262,-4.69234 -13.410446,-13.79774 -0.689633,-8.24794 2.403422,-18.84123 -5.009692,-24.88808 -1.800624,-1.56497 -4.846481,-0.43514 -7.13009,-0.77663 z"
       id="path3073" />
  </g>
  <path
     style="fill:#ffffff;stroke-width:2.01992"
     d="m 5.453323,128.92149 c 14.582743,-25.20962 28.777632,-50.664456 43.799086,-75.607854 6.961997,3.11648 6.246302,11.610041 6.244892,17.944793 0.138697,6.686717 -1.059207,16.570796 7.225149,18.874327 8.733583,0.886293 9.716791,9.637953 8.950089,16.714064 -0.685689,6.50849 1.989773,16.41125 -5.501923,19.69076 -3.469198,1.97735 -12.599665,-2.86375 -12.815866,2.1152 -2.484715,0.55173 -5.995223,0.0777 -8.873437,0.2359 -13.006647,-0.13069 -26.037384,0.31818 -39.02799,0.0328 z"
     id="path2"
     inkscape:export-filename="simple-school-logo.svg"
     inkscape:export-xdpi="96"
     inkscape:export-ydpi="96" />
  <path
     style="fill:#ffffff;stroke-width:2.01992"
     d="m 73.841548,97.514017 c 0,-10.458222 0,-20.916444 0,-31.374667 6.467377,-4.995674 4.398399,7.852664 4.751946,11.593743 0.428135,2.92006 -1.325361,14.216316 2.562193,11.334935 -0.128725,-7.993827 0.150702,-16.010901 -0.354676,-23.986633 -4.370227,-8.231367 -11.987607,0.636156 -9.449647,6.868319 -0.0081,6.439498 -0.0019,12.879009 -0.0039,19.318512 C 66.640174,87.621736 57.628794,87.790278 58.159109,79.794641 57.093529,71.463709 60.012275,62.0098 54.877043,54.667522 52.803136,51.132573 47.52804,52.489123 52.019863,47.936792 59.718129,34.534551 67.437539,21.144471 75.148187,7.7493542 77.9236,7.0380592 78.157844,10.69461 79.58448,12.301639 c 7.623659,13.179623 15.247318,26.359245 22.87098,39.538869 -6.884792,0.746963 -8.112858,9.694415 -8.01493,15.335644 -0.872194,6.62949 2.684414,17.357362 -5.458754,20.367664 -4.35361,1.627542 -13.008351,7.512169 -11.670014,-1.685266 -0.656294,-6.337467 1.177951,-14.364549 -1.087363,-19.669162 -2.35929,5.552927 -0.557602,13.540311 -1.13333,20.081359 -0.0047,14.205983 -0.0017,28.411963 -0.0025,42.617933 -2.592229,0.15987 -0.643049,-4.22168 -1.247024,-6.05007 0,-8.44153 0,-16.88306 0,-25.324593 z"
     id="path3" />
  <path
     style="fill:#ffffff;stroke-width:2.01992"
     d="m 99.102644,127.86434 c -2.430864,-3.56613 -10.566648,0.98839 -14.525066,-2.04001 -5.489154,-4.96302 -3.324024,-13.45268 -3.932153,-20.03001 -1.065353,-7.520435 1.41659,-15.301958 10.099347,-16.097126 7.556796,-3.055559 5.959681,-12.643885 6.112499,-19.233668 -0.598268,-5.519526 0.486198,-16.84935 6.903559,-16.319426 14.44109,24.853931 28.82294,49.74222 43.23849,74.61097 -15.94559,0.23058 -31.89564,0.0988 -47.843248,0.13361 -0.01781,-0.34145 -0.03562,-0.68289 -0.05343,-1.02434 z"
     id="path4"
     inkscape:export-filename="simple-school-logo.svg"
     inkscape:export-xdpi="96"
     inkscape:export-ydpi="96" />
  <rect
     style="fill:#ffffff;stroke-width:3"
     id="rect1"
     width="1.5157872"
     height="5.9995346"
     x="73.733749"
     y="126.08161" />
</svg>
